<?xml version="1.0" encoding="UTF-8" standalone="no"?>
<!-- Created with Inkscape (http://www.inkscape.org/) -->

<svg
   version="1.1"
   id="svg1"
   width="1024"
   height="918.53735"
   viewBox="0 0 1024 918.53735"
   xmlns="http://www.w3.org/2000/svg"
   xmlns:svg="http://www.w3.org/2000/svg">
  <defs
     id="defs1" />
  <rect
     style="display:none;fill:#ffffff;stroke-width:2.5992"
     id="rect2"
     width="1024"
     height="1024"
     x="-1.7983262e-05"
     y="-52.731331" />
  <g
     id="g1"
     transform="translate(-141.47764,-137.28641)">
    <g
       id="g2"
       transform="matrix(1.383002,0,0,1.383002,-54.186187,20.346567)">
      <path
         id="path27849"
         style="display:inline;fill:#5d456d"
         d="M 504.98633,84.648438 C 441.92211,86.550624 380.42023,117.49003 342.73828,174.5 c -44.31244,67.0414 -40.33449,159.56219 9.58203,222.88477 3.06299,3.88562 3.06254,3.88655 -0.8789,7 -19.14935,15.12662 -32.29282,36.06047 -44.09571,70.22851 -4.39531,12.72392 -8.10226,17.19495 -18.41992,22.2168 -29.53836,14.37701 -62.28898,2.90428 -69.375,-24.30078 -6.77753,-26.02072 12.34843,-45.35543 38.23047,-38.64649 20.37568,5.28163 28.00606,-3.787 18.82227,-22.36914 -17.58857,-35.58806 -71.40962,-43.41983 -104.32422,-15.18164 -71.60421,61.43089 -9.40341,183.66737 94.59765,185.90235 12.37728,0.26598 12.37713,0.26562 12.53907,14.76562 0.12027,10.76935 0.63521,16.10647 2.00195,20.74219 2.14356,7.27051 2.21897,7.11163 -6.60352,13.90039 -32.65367,25.12642 -77.6691,9.76228 -84.40234,-28.80664 -2.83547,-16.24196 -12.62223,-22.06268 -22.33789,-13.28516 -13.28887,12.0057 -5.3379,58.84133 14.30664,84.27344 49.37698,63.92417 150.26137,47.45717 196.25391,-32.0332 3.59322,-6.21028 8.00866,-12.86602 9.81054,-14.79102 3.97964,-4.25156 11.47761,-14.17409 17.55469,-23.23047 6.41683,-9.56269 7.44347,-9.09663 6.56445,2.98047 -3.84362,52.80832 -33.71046,94.13099 -77.56445,107.31445 -11.68358,3.51234 -15,6.71445 -15,14.48243 0,9.31234 10.70812,15.77895 31.4668,19.00585 27.04065,4.20342 59.19897,-3.1647 83.03906,-19.02734 39.79107,-26.47607 62.12671,-71.94323 66.82226,-136.02539 1.17238,-16 1.17188,-16 10.67188,-16 9.5,0 9.49996,0 10.62891,17 5.22336,78.65463 38.57731,131.00103 95.21679,149.4375 42.27941,13.7622 96.99603,0.35456 84.19922,-20.63281 -2.67023,-4.3793 -5.11764,-5.78873 -17.01953,-9.79688 -43.59056,-14.67982 -70.04428,-53.0355 -74.59375,-108.1582 -0.94559,-11.45707 -0.0875,-11.845 5.93555,-2.68164 7.2108,10.97033 13.15339,18.82627 19.28515,25.49609 2.8958,3.14991 6.68976,8.56405 8.43164,12.03125 38.6403,76.91296 142.42058,98.39337 192.76563,39.89844 28.21733,-32.78517 35.05056,-90.86266 10.92578,-92.86328 -8.50184,-0.70503 -12.24939,3.14048 -14.39258,14.76953 -7.47337,40.55082 -53.31563,56.03523 -86.53125,29.22852 -7.24946,-5.85068 -7.3204,-6.07668 -4.85937,-15.69922 C 743.46367,608.7759 744,603.42244 744,594.47656 c 0,-12.20416 0,-12.20434 14.75,-12.73828 95.36485,-3.45213 156.9166,-107.36675 103.16992,-174.17773 -31.49868,-39.15513 -92.86435,-37.49622 -114.16992,3.08789 -8.15134,15.52716 -1.43753,28.59854 12.58594,24.5039 14.76293,-4.31056 23.3957,-3.75173 32.20898,2.08594 20.07564,13.29755 15.1337,48.13785 -8.54492,60.23828 -23.26223,11.88764 -59.5441,2.92872 -65.50195,-16.17383 -10.52858,-33.7576 -27.88224,-62.79718 -45.99805,-76.97656 -3.0826,-2.41278 -3.77065,-3.46821 -3,-4.59961 23.94598,-35.15513 33.98296,-58.28147 39.39648,-90.77344 C 719.49742,245.3262 694.53979,177.63539 644.5,134.30078 604.03141,99.254858 554.03627,83.168959 504.98633,84.648438 Z M 428.48242,249.88477 c 5.85963,-0.30486 11.91275,0.63746 17.83399,2.99414 37.71583,15.01104 35.63499,84.42707 -2.81641,93.94726 -35.3502,8.75236 -64.35722,-26.42726 -53.64453,-65.06055 5.22129,-18.82959 21.04808,-30.9663 38.62695,-31.88085 z m 165.44531,0.15234 c 14.39149,0.44995 28.59441,8.08471 35.98829,21.95703 14.41275,27.0411 1.57065,64.73471 -25.1836,73.92188 -23.94009,8.22081 -45.77243,-4.10014 -53.10547,-29.96875 -5.51846,-19.46733 -1.06201,-40.20431 11.49219,-53.47852 8.30828,-8.78479 19.61522,-12.7816 30.80859,-12.43164 z" />
      <path
         id="path27850-3"
         style="display:inline;fill:#ffffff;fill-opacity:1"
         d="m 428.87695,249.61523 c -17.57887,0.91456 -33.40566,13.05127 -38.62695,31.88086 -10.71269,38.63329 18.29433,73.81291 53.64453,65.06055 38.4514,-9.52019 40.53224,-78.93623 2.81641,-93.94726 -5.92124,-2.35668 -11.97436,-3.299 -17.83399,-2.99415 z m 165.44532,0.15235 c -11.19338,-0.34996 -22.50032,3.64685 -30.8086,12.43164 -12.5542,13.27421 -17.01065,34.01118 -11.49219,53.47851 7.33304,25.86861 29.16538,38.18956 53.10547,29.96875 26.75425,-9.18717 39.59635,-46.88272 25.1836,-73.92382 -7.39387,-13.87232 -21.5968,-21.50513 -35.98828,-21.95508 z m -153.36524,24.08203 c 12.25103,0.12986 23.34834,16.52833 18.63672,35.1875 -3.77198,14.93793 -15.92844,22.32482 -26.31445,15.99219 -12.962,-7.90327 -15.45164,-33.48177 -4.41602,-45.36914 3.79762,-4.09073 8.01008,-5.85384 12.09375,-5.81055 z m 142.75586,0.31641 c 11.23754,0.46657 18.09154,11.60861 17.14063,28.4375 -1.00906,17.85786 -14.78298,29.61534 -26.39649,22.5332 -18.50375,-11.28395 -13.32246,-49.23867 6.95117,-50.91992 0.78714,-0.0653 1.55552,-0.0819 2.30469,-0.0508 z" />
      <path
         id="path27851"
         style="display:inline;fill:#5d456d"
         d="m 433.28024,325.02935 c -12.962,-7.90327 -15.4517,-33.48126 -4.41608,-45.36863 15.19047,-16.36289 37.01099,4.4967 30.72883,29.37559 -3.77198,14.93793 -15.92674,22.32567 -26.31275,15.99304 z m 141.17714,0.10773 c -18.50375,-11.28395 -13.32244,-49.23981 6.95119,-50.92106 12.59417,-1.0444 20.45828,10.43706 19.44397,28.38787 -1.00906,17.85786 -14.78165,29.61533 -26.39516,22.53319 z" />
      <path
         id="path27891"
         style="display:inline;fill:#2a1f36"
         d="m 349.17191,745.56156 c -17.95798,-3.42385 -27.33357,-8.94977 -27.52428,-16.22265 -0.20231,-7.71567 2.50326,-10.39968 13.57636,-13.4682 44.22007,-12.254 75.74945,-56.61188 79.17626,-111.391 0.88471,-14.14256 -1.18704,-13.9307 -11.68934,1.19539 -4.13376,5.95369 -10.23305,13.9749 -13.55399,17.8249 -3.32094,3.85 -8.3177,11.13863 -11.10391,16.19696 -47.596,86.41001 -164.3204,96.61643 -203.6023,17.80304 -12.45281,-24.98476 -14.91994,-59.47954 -4.82217,-67.42245 8.0636,-6.34283 17.20158,-0.57009 18.87269,11.92245 5.64256,42.18167 56.58659,57.59899 91.49877,27.6905 5.08375,-4.35514 5.36486,-5.21304 3.43711,-10.48972 -1.58803,-4.3468 -1.896,-9.08142 -2.42594,-37.29531 -0.006,-0.327 -6.64867,-0.88206 -14.76117,-1.23347 -67.70957,-2.93303 -119.97618,-51.85773 -121.97076,-114.172 -1.99134,-62.21289 55.26364,-104.2467 106.65164,-78.29845 30.65744,15.48041 38.03293,53.19815 8.66019,44.28763 -46.47504,-14.09869 -60.38262,52.2034 -14.59929,69.59969 23.0708,8.76622 56.4765,-3.33084 62.37858,-22.58887 10.33214,-33.71299 28.68068,-62.83022 47.67597,-75.65685 1.85005,-1.24925 2.20766,-2.01984 1.45367,-3.13238 -0.55,-0.81154 -4.73677,-6.98499 -9.30392,-13.71877 C 276.36882,282.56481 321.25504,143.99812 440.59237,98.671553 484.33816,82.056075 536.26046,82.166533 581.5,98.971315 701.5733,143.57402 747.21701,285.91631 674.61013,389.34015 c -8.96885,12.77556 -8.94614,12.64457 -2.91193,16.79622 15.88251,10.92745 31.02032,35.50945 43.16744,70.09875 4.16817,11.869 5.38096,13.97317 9.81477,17.02849 32.1182,22.13249 72.51296,11.4668 80.9246,-21.36705 6.44696,-25.16493 -12.70287,-45.83963 -37.38148,-40.35813 -12.7294,2.82739 -15.39175,2.90369 -18.41241,0.52764 -8.47563,-6.66694 -3.90828,-21.48831 10.80595,-35.06607 23.19683,-21.40519 63.62195,-21.28758 89.00017,0.25893 61.36201,52.09731 23.34221,158.4054 -64.11724,179.2798 -12.06307,2.87916 -29.10996,4.71455 -35.68597,3.84221 C 742.34969,579.39076 742,580.04332 742,594.96248 c 0,9.45035 -0.51455,14.72947 -2.00286,20.54872 -2.3873,9.33424 -2.13694,9.95875 6.72212,16.7674 35.44079,27.23815 83.27662,9.09226 88.81599,-33.69118 C 836.46585,591.39993 840.14751,588 847,588 c 10.35372,0 13.74962,7.91656 12.65437,29.5 -4.13915,81.56746 -95.0987,120.98736 -167.61515,72.64079 -16.91735,-11.27876 -38.12259,-34.7114 -46.12862,-50.97396 -1.72811,-3.51028 -5.80028,-9.31562 -9.04928,-12.90076 -6.49333,-7.16513 -15.42039,-19.307 -21.3554,-29.04589 -4.89479,-8.03198 -5.93456,-7.58189 -6.29824,2.72632 -1.79328,50.82949 29.7399,98.59575 75.55032,114.44311 12.85172,4.44584 13.87831,5.00642 15.73165,8.59037 10.64303,20.58135 -43.47567,31.59278 -84.98965,17.29269 -54.59006,-18.80433 -87.77582,-73.08158 -91.13744,-149.06064 -0.77547,-17.52685 -0.0306,-16.41861 -11.41642,-16.98494 -12.82959,-0.63813 -12.50558,-1.0159 -13.27158,15.47365 -3.83722,82.60358 -43.47382,140.03053 -106.57691,154.41248 -11.44836,2.60921 -33.9462,3.35102 -43.92574,1.44834 z M 392,724.66772 c 39.50486,-10.17733 69.51034,-44.41228 81.93801,-93.4877 4.18882,-16.54113 7.52288,-53.15911 4.98305,-54.72881 -2.39396,-1.47954 -42.64076,-1.71377 -43.54331,-0.25341 -0.43596,0.7054 -0.674,4.66197 -0.52896,8.79238 2.20032,62.66298 -22.68263,112.7736 -68.88413,138.72257 -2.72945,1.53299 -4.96308,3.19217 -4.96364,3.68706 -0.002,1.6623 21.19217,-0.20563 30.99898,-2.73209 z m 271,2.44629 c 0,-0.4873 -4.11285,-3.2998 -9.13966,-6.25 C 609.7833,694.99549 590.46941,654.29552 587.72611,581.5 587.5,575.5 587.5,575.5 566,575.5 c -21.5,0 -21.5,0 -21.3616,13 0.8748,82.17318 45.562,138.22671 111.1116,139.3732 3.9875,0.0697 7.25,-0.2719 7.25,-0.75919 z M 275.67764,690.94606 c 22.29296,-3.00361 42.89022,-12.90553 59.82236,-28.75897 8.94951,-8.37936 8.95694,-8.0975 -0.19698,-7.47229 -12.26378,0.83761 -23.72245,-2.83004 -34.2987,-10.97819 -4.49567,-3.46356 -4.49567,-3.46356 -10.77214,2.28768 -23.87736,21.87927 -66.31857,24.30542 -93.02511,5.31777 -7.35977,-5.23261 -6.60292,-1.53224 2.10617,10.29745 16.1175,21.89262 46.07128,33.38806 76.3644,29.30655 z M 781.5,689.07715 c 19.75114,-5.12456 39.52446,-19.79145 47.57296,-35.28731 2.92785,-5.63704 2.36448,-6.18689 -2.74043,-2.67462 -29.12935,20.04152 -69.79082,17.08454 -95.57139,-6.95013 -4.73887,-4.41794 -4.73887,-4.41794 -8.7141,-0.82655 -8.60953,7.77819 -23.01681,12.3987 -34.79704,11.15965 -3.61882,-0.38063 -6.25,-0.26961 -6.25,0.26371 0,1.39016 11.6799,12.29419 18.6578,17.41841 23.89195,17.54503 54.77192,23.9204 81.8422,16.89684 z M 343.5399,633.448 c 13.21335,-3.44074 24.7163,-14.05908 45.98431,-42.448 21.13632,-28.21313 28.51947,-34.34155 44.49519,-36.93347 8.5374,-1.38512 144.8594,-1.40575 154.42422,-0.0234 16.76129,2.42247 24.58067,8.6933 43.69128,35.03869 23.86338,32.89743 34.02734,41.90809 50.63334,44.88796 15.21691,2.73061 30.28359,-5.03724 36.55682,-18.84741 C 727.87304,596.30448 716.38883,532.62538 694.77606,479 673.73036,426.78162 661.86289,415.9933 621,411.93262 c -24.65828,-2.45038 -32.83123,-1.95217 -38.35355,2.33795 -4.85355,3.77058 -4.85355,3.77058 -71.5837,3.5 C 444.3326,417.5 444.3326,417.5 440.68768,414.29932 c -4.88371,-4.28848 -8.34285,-4.75593 -25.01264,-3.38008 -50.38848,4.15884 -58.84874,9.39881 -78.43667,48.58076 -25.7198,51.44761 -43.64575,136.65187 -33.03935,157.04015 7.41872,14.26072 23.29816,21.08535 39.34088,16.90785 z m 266.94151,-88.84157 c -14.85324,-6.47197 -14.55007,-28.74519 0.49486,-36.35643 19.09224,-9.65878 37.29841,15.76856 22.63962,31.61924 -5.46406,5.90834 -15.65671,7.99547 -23.13448,4.73719 z m -219.75326,-1.36578 c -4.87067,-0.66371 -5.84358,-3.61913 -5.72601,-17.39391 0.058,-6.79071 0.0812,-12.90924 0.0516,-13.59674 -0.0404,-0.9396 -3.62694,-1.25 -14.44298,-1.25 -19.47417,0 -19.11078,0.29779 -19.11078,-15.66079 0,-20.05835 0.52082,-20.60714 20.09955,-21.17928 13.25987,-0.38748 13.25987,-0.38748 13.58016,-15.12352 C 385.59756,439.81192 384.42586,441 402.96746,441 422.05001,441 421,439.93274 421,459.32874 421,474 421,474 434.9349,474 c 20.93699,0 20.64483,-0.28513 20.43763,19.94623 C 455.19697,511.08692 455.29854,511 435.44424,511 421,511 421,511 421,524.27749 c 0,14.95466 -0.81304,17.30246 -6.27874,18.13094 -4.7116,0.71417 -20.7715,1.27122 -23.99311,0.83222 z m 183.65576,-36.15377 c -7.3028,-3.31633 -12.16551,-12.38912 -10.95754,-20.44444 2.61223,-17.41962 25.212,-22.87277 35.18017,-8.48871 11.21292,16.18025 -6.28379,37.07951 -24.22263,28.93315 z M 650.5,507.83453 c -18.39857,-6.86694 -15.87262,-34.96294 3.37543,-37.54465 15.89368,-2.13179 27.09671,13.8076 20.00342,28.46038 -3.7663,7.78013 -15.08707,12.17902 -23.37885,9.08427 z m -36.86274,-36.25411 c -18.24773,-6.71879 -16.52545,-32.49436 2.51378,-37.62109 11.14665,-3.00148 22.76773,6.7392 22.827,19.13339 0.0607,12.69555 -13.73549,22.76074 -25.34078,18.4877 z M 280.4311,561.13169 c 2.90639,-0.62636 2.95803,-0.76237 6.12473,-16.13169 1.75649,-8.525 3.72957,-17.45792 4.38462,-19.85094 1.56275,-5.709 1.3298,-5.81618 -7.17426,-3.30071 -41.41616,12.25072 -83.72771,-14.9606 -87.32065,-56.15747 -2.36846,-27.15704 17.86182,-51.99741 43.55879,-53.48499 10.25388,-0.59359 10.2573,-1.82919 0.0184,-6.63402 -15.31178,-7.18537 -28.14588,-7.13847 -42.91673,0.15685 -32.29331,15.94967 -42.69237,60.31974 -23.21517,99.05312 12.89989,25.6534 38.82577,45.81446 68.30974,53.12053 13.22498,3.27712 31.03004,4.78111 38.23056,3.22932 z M 764,560.55951 c 76.10052,-5.22156 124.85628,-95.27322 77.51129,-143.16299 -17.80974,-18.01467 -37.68071,-21.86993 -58.57513,-11.36442 -6.94168,3.49021 -10.26071,7.15785 -4.95302,5.47325 12.05261,-3.82535 36.01172,10.54433 43.91067,26.3358 24.54601,49.07199 -33.9681,104.48244 -86.71875,82.11909 -3.77425,-1.60008 -4.08123,-0.38866 -1.97308,7.78621 1.09973,4.26445 3.03372,13.3239 4.29775,20.1321 1.26403,6.80821 2.74901,12.65821 3.29995,13 1.11483,0.69163 10.31424,0.56513 23.20032,-0.31904 z M 575.5,394.5673 c 4.85923,-5.27355 8.4823,-5.93219 28.94815,-5.2625 9.92852,0.32488 22.10185,1.15433 27.05185,1.8432 16.89094,2.35067 15.75633,2.74167 23.64376,-8.148 62.5384,-86.34278 33.85383,-208.91575 -59.87536,-255.85531 -90.2221,-45.183214 -199.86332,-10.71558 -243.64432,76.59384 -27.16128,54.16585 -22.60013,120.80117 11.90904,173.98298 11.33144,17.46281 11.08081,17.28313 21.17461,15.1797 11.60936,-2.41927 27.92606,-3.89358 43.13798,-3.89779 13.58741,-0.004 16.48194,0.8955 19.53874,6.07025 2.16238,3.66063 -1.67078,3.48295 66.61555,3.08788 58.5,-0.33846 58.5,-0.33846 61.5,-3.59425 z M 432.83906,322.53661 c -11.33252,-7.70065 -12.05949,-34.92526 -1.1615,-43.49762 C 443.69385,269.58698 458.5,280.88158 458.5,299.5 c 0,20.14112 -12.89115,31.7139 -25.66094,23.03661 z M 573.95717,322.75 C 558.22678,312.14874 564.44609,276 582.00039,276 c 11.57146,0 16.49961,7.16839 16.49961,24 0,16.04744 -5.96741,25 -16.664,25 -3.05251,0 -5.63421,-0.73727 -7.87883,-2.25 z" />
    </g>
  </g>
</svg>
